<?xml version="1.0" standalone="no"?>
<!DOCTYPE svg PUBLIC "-//W3C//DTD SVG 20010904//EN"
 "http://www.w3.org/TR/2001/REC-SVG-20010904/DTD/svg10.dtd">
<svg version="1.0" xmlns="http://www.w3.org/2000/svg"
 width="140.000000pt" height="140.000000pt" viewBox="0 0 140.000000 140.000000"
 preserveAspectRatio="xMidYMid meet">

<g transform="translate(0.000000,140.000000) scale(0.100000,-0.100000)"
fill="#000000" stroke="none">
<path d="M20 1380 c-24 -24 -25 -49 -6 -76 13 -17 25 -19 100 -17 73 2 85 0
90 -15 3 -9 48 -205 101 -436 l95 -418 -29 -33 c-39 -44 -46 -82 -25 -133 43
-108 195 -109 238 -1 21 52 9 103 -34 144 -27 26 -50 77 -50 113 0 9 24 12 84
12 98 0 132 10 148 44 9 20 8 30 -6 51 -16 24 -19 25 -136 25 -104 0 -119 2
-124 18 -9 30 -66 283 -66 293 0 5 161 9 400 9 343 0 401 -2 406 -15 3 -8 -4
-44 -16 -81 -26 -76 -28 -107 -10 -129 13 -16 57 -20 78 -7 14 10 82 206 82
239 0 33 -26 80 -53 95 -17 10 -132 14 -471 18 l-449 5 -27 115 c-43 187 -56
200 -201 200 -86 0 -102 -3 -119 -20z"/>
<path d="M990 666 c-209 -45 -324 -270 -236 -463 29 -65 97 -138 152 -165 214
-107 470 35 491 272 9 100 -20 182 -93 260 -78 83 -201 121 -314 96z m98 -168
c7 -7 12 -29 12 -49 0 -61 7 -69 59 -69 52 0 71 -13 71 -46 0 -29 -10 -35 -74
-43 l-51 -6 -5 -55 c-4 -48 -8 -55 -28 -58 -37 -5 -52 15 -52 69 l0 49 -37 0
c-59 0 -83 10 -89 36 -9 36 11 53 69 56 l52 3 3 50 c2 27 8 55 14 62 13 16 40
17 56 1z"/>
</g>
</svg>
