<?xml version="1.0" standalone="no"?>
<!DOCTYPE svg PUBLIC "-//W3C//DTD SVG 20010904//EN"
 "http://www.w3.org/TR/2001/REC-SVG-20010904/DTD/svg10.dtd">
<svg version="1.0" xmlns="http://www.w3.org/2000/svg"
 width="140.000000pt" height="140.000000pt" viewBox="0 0 140.000000 140.000000"
 preserveAspectRatio="xMidYMid meet">

<g transform="translate(0.000000,140.000000) scale(0.100000,-0.100000)"
fill="#000000" stroke="none">
<path d="M20 1380 c-20 -20 -20 -33 -20 -680 0 -648 0 -660 20 -680 20 -20 31
-20 363 -18 l342 3 3 250 c3 290 8 275 -99 275 -52 0 -68 4 -73 16 -12 31 -7
191 7 202 7 6 46 12 87 14 l75 3 6 90 c7 109 36 180 98 241 72 70 120 89 236
89 l100 0 3 -99 c2 -64 -1 -103 -9 -112 -8 -9 -33 -14 -74 -14 -54 0 -66 -4
-88 -26 -29 -29 -40 -69 -35 -129 l3 -40 92 -5 c50 -3 95 -8 99 -12 7 -8 -12
-193 -22 -209 -3 -5 -34 -9 -70 -9 -111 0 -104 16 -104 -260 0 -131 3 -245 6
-254 5 -14 32 -16 200 -16 181 0 195 1 214 20 20 20 20 33 20 680 0 647 0 660
-20 680 -20 20 -33 20 -680 20 -647 0 -660 0 -680 -20z"/>
</g>
</svg>
