<?xml version="1.0" standalone="no"?>
<!DOCTYPE svg PUBLIC "-//W3C//DTD SVG 20010904//EN"
 "http://www.w3.org/TR/2001/REC-SVG-20010904/DTD/svg10.dtd">
<svg version="1.0" xmlns="http://www.w3.org/2000/svg"
 width="140.000000pt" height="140.000000pt" viewBox="0 0 140.000000 140.000000"
 preserveAspectRatio="xMidYMid meet">

<g transform="translate(0.000000,140.000000) scale(0.100000,-0.100000)"
fill="#000000" stroke="none">
<path d="M317 1393 c-4 -3 -7 -64 -7 -135 0 -115 -2 -130 -20 -148 -24 -24
-34 -25 -54 -4 -13 12 -16 39 -16 130 0 73 -4 114 -10 114 -46 0 -139 -94
-178 -178 -24 -52 -26 -68 -26 -197 l-1 -140 199 -3 198 -2 40 44 c24 28 65
58 106 78 59 30 76 33 152 33 76 0 93 -4 151 -32 36 -18 84 -52 108 -78 l42
-45 197 2 197 3 0 135 c-1 170 -19 223 -104 308 -104 106 -171 124 -442 120
l-184 -3 -5 -138 c-4 -122 -7 -140 -24 -153 -23 -16 -26 -17 -46 -4 -12 7 -16
40 -20 152 l-5 143 -40 0 -40 0 -2 -125 c-2 -69 -5 -135 -8 -146 -6 -27 -30
-37 -56 -24 -17 10 -19 23 -19 136 0 69 -5 134 -10 145 -10 19 -59 27 -73 12z
m861 -215 c18 -18 15 -118 -5 -140 -23 -26 -106 -25 -133 2 -26 26 -28 105 -3
132 19 21 121 26 141 6z"/>
<path d="M661 810 c-97 -22 -154 -122 -125 -219 48 -164 280 -163 329 1 8 27
12 54 10 61 -2 7 -6 24 -9 39 -17 79 -118 137 -205 118z"/>
<path d="M4 726 c-3 -8 -4 -108 -2 -223 3 -191 6 -213 27 -268 33 -82 124
-173 206 -206 60 -24 60 -24 465 -24 403 0 405 0 464 24 81 32 175 126 207
207 22 56 24 71 24 279 l0 220 -175 3 -175 2 0 -92 c0 -79 -4 -101 -27 -150
-30 -65 -98 -137 -155 -166 -179 -90 -396 -16 -481 165 -23 50 -27 71 -27 151
l1 92 -173 0 c-140 0 -175 -3 -179 -14z"/>
</g>
</svg>
