<?xml version="1.0" standalone="no"?>
<!DOCTYPE svg PUBLIC "-//W3C//DTD SVG 20010904//EN"
 "http://www.w3.org/TR/2001/REC-SVG-20010904/DTD/svg10.dtd">
<svg version="1.0" xmlns="http://www.w3.org/2000/svg"
 width="500.000000pt" height="500.000000pt" viewBox="0 0 500.000000 500.000000"
 preserveAspectRatio="xMidYMid meet">

<g transform="translate(0.000000,500.000000) scale(0.100000,-0.100000)"
fill="#000000" stroke="none">
<path d="M0 2500 l0 -2500 2500 0 2500 0 0 2500 0 2500 -2500 0 -2500 0 0
-2500z m1716 123 c11 -4 14 -13 9 -32 -9 -34 -10 -35 -35 -21 -11 6 -40 10
-63 8 -34 -2 -43 -7 -45 -25 -3 -19 5 -24 67 -43 82 -24 107 -50 96 -99 -11
-50 -47 -71 -121 -71 -62 0 -114 15 -114 32 0 5 5 18 10 28 9 17 13 17 38 4
36 -19 96 -18 112 2 19 22 -2 38 -72 58 -79 23 -104 61 -77 120 22 47 122 67
195 39z m369 -13 c48 -30 69 -76 63 -139 -4 -44 -11 -59 -41 -89 -33 -33 -43
-36 -101 -40 -98 -6 -151 32 -170 125 -8 35 18 108 47 132 53 43 143 48 202
11z m785 8 c55 -29 81 -64 87 -119 9 -91 -58 -159 -156 -159 -103 0 -165 62
-158 158 3 44 10 59 38 88 55 56 119 67 189 32z m1081 -4 c34 -17 36 -25 10
-48 -18 -17 -22 -17 -43 -2 -28 20 -61 20 -98 1 -70 -36 -50 -152 30 -170 17
-4 41 1 64 11 34 17 37 17 53 1 48 -47 -101 -90 -181 -52 -19 9 -45 32 -56 50
-35 56 -23 156 24 194 49 41 136 47 197 15z m-3221 -99 l0 -115 70 0 70 0 0
-30 0 -30 -105 0 -105 0 0 145 0 145 35 0 35 0 0 -115z m419 73 c10 -24 39
-89 64 -145 l46 -103 -35 0 c-30 0 -37 4 -47 30 -11 29 -13 30 -82 30 -69 0
-71 -1 -82 -30 -10 -26 -17 -30 -47 -30 l-35 0 46 103 c25 56 54 121 64 145
17 38 22 42 54 42 32 0 37 -4 54 -42z m1238 -40 l68 -82 3 82 3 82 34 0 35 0
0 -145 0 -145 -28 0 c-24 0 -40 14 -98 86 l-69 86 -3 -86 -3 -86 -34 0 -35 0
0 145 0 145 30 0 c25 0 40 -13 97 -82z m903 57 c0 -23 -4 -25 -45 -25 l-45 0
0 -120 0 -120 -35 0 -35 0 0 120 0 120 -45 0 c-41 0 -45 2 -45 25 l0 25 125 0
125 0 0 -25z m320 0 c0 -25 -1 -25 -81 -25 l-80 0 3 -32 3 -33 68 -3 c64 -3
67 -4 67 -27 0 -24 -2 -25 -71 -25 l-70 0 3 -32 3 -33 78 -3 c74 -3 77 -4 77
-27 l0 -25 -115 0 -115 0 0 145 0 145 115 0 115 0 0 -25z m659 -17 c10 -24 39
-89 64 -145 l46 -103 -35 0 c-30 0 -37 4 -47 30 -11 29 -13 30 -82 30 -69 0
-71 -1 -82 -30 -10 -26 -17 -30 -47 -30 l-35 0 46 103 c25 56 54 121 64 145
17 38 22 42 54 42 32 0 37 -4 54 -42z"/>
<path d="M1937 2560 c-73 -58 -17 -185 72 -165 81 18 101 134 31 170 -40 20
-72 19 -103 -5z"/>
<path d="M2741 2554 c-25 -21 -31 -34 -31 -64 0 -58 35 -95 90 -95 84 0 121
95 61 156 -37 37 -79 38 -120 3z"/>
<path d="M1076 2520 c-10 -25 -20 -51 -23 -57 -4 -9 8 -13 41 -13 25 0 46 3
45 8 0 4 -10 29 -23 57 l-22 49 -18 -44z"/>
<path d="M4196 2520 c-10 -25 -20 -51 -23 -57 -4 -9 8 -13 41 -13 25 0 46 3
45 8 0 4 -10 29 -23 57 l-22 49 -18 -44z"/>
</g>
</svg>
