<?xml version="1.0" standalone="no"?>
<!DOCTYPE svg PUBLIC "-//W3C//DTD SVG 20010904//EN"
 "http://www.w3.org/TR/2001/REC-SVG-20010904/DTD/svg10.dtd">
<svg version="1.0" xmlns="http://www.w3.org/2000/svg"
 width="140.000000pt" height="140.000000pt" viewBox="0 0 140.000000 140.000000"
 preserveAspectRatio="xMidYMid meet">

<g transform="translate(0.000000,140.000000) scale(0.100000,-0.100000)"
fill="#000000" stroke="none">
<path d="M646 1367 c-9 -7 -50 -102 -89 -212 l-72 -200 -209 -5 -208 -5 -24
-28 c-25 -30 -31 -66 -14 -97 5 -10 82 -77 170 -150 88 -73 160 -140 160 -148
0 -9 -30 -107 -67 -219 -56 -168 -66 -207 -58 -230 13 -37 73 -67 106 -54 13
5 98 63 189 130 91 66 167 121 170 121 3 0 79 -55 170 -121 91 -67 176 -125
189 -130 17 -7 33 -5 60 8 64 32 63 47 -12 276 -37 112 -67 211 -67 219 0 9
66 71 148 138 81 67 157 133 170 147 31 34 29 78 -7 114 l-29 29 -201 0 c-181
0 -201 2 -209 18 -5 9 -38 98 -73 196 -34 99 -71 188 -81 198 -21 21 -86 24
-112 5z"/>
</g>
</svg>
